<svg width="22" height="18" viewBox="0 0 22 18" fill="none" xmlns="http://www.w3.org/2000/svg">
<path d="M9.80019 4.2C9.80019 5.15478 9.42091 6.07045 8.74578 6.74559C8.07065 7.42072 7.15497 7.8 6.20019 7.8C5.24542 7.8 4.32974 7.42072 3.65461 6.74559C2.97948 6.07045 2.6002 5.15478 2.6002 4.2C2.6002 3.24522 2.97948 2.32955 3.65461 1.65442C4.32974 0.979285 5.24542 0.6 6.20019 0.6C7.15497 0.6 8.07065 0.979285 8.74578 1.65442C9.42091 2.32955 9.80019 3.24522 9.80019 4.2V4.2ZM19.4002 4.2C19.4002 4.67276 19.3071 5.14089 19.1262 5.57766C18.9452 6.01443 18.6801 6.41129 18.3458 6.74559C18.0115 7.07988 17.6146 7.34505 17.1779 7.52597C16.7411 7.70688 16.273 7.8 15.8002 7.8C15.3274 7.8 14.8593 7.70688 14.4225 7.52597C13.9858 7.34505 13.5889 7.07988 13.2546 6.74559C12.9203 6.41129 12.6551 6.01443 12.4742 5.57766C12.2933 5.14089 12.2002 4.67276 12.2002 4.2C12.2002 3.24522 12.5795 2.32955 13.2546 1.65442C13.9297 0.979285 14.8454 0.6 15.8002 0.6C16.755 0.6 17.6706 0.979285 18.3458 1.65442C19.0209 2.32955 19.4002 3.24522 19.4002 4.2V4.2ZM14.5162 17.4C14.5714 17.0076 14.6002 16.608 14.6002 16.2C14.603 14.3146 13.9687 12.4836 12.8002 11.004C13.7123 10.4774 14.7469 10.2002 15.8002 10.2002C16.8534 10.2001 17.888 10.4774 18.8001 11.004C19.7122 11.5306 20.4697 12.288 20.9963 13.2001C21.5229 14.1121 21.8002 15.1468 21.8002 16.2V17.4H14.5162ZM6.20019 10.2C7.79149 10.2 9.31762 10.8321 10.4428 11.9574C11.5681 13.0826 12.2002 14.6087 12.2002 16.2V17.4H0.200195V16.2C0.200195 14.6087 0.832336 13.0826 1.95755 11.9574C3.08277 10.8321 4.6089 10.2 6.20019 10.2V10.2Z" fill="#6B7280"/>
</svg>
